<?xml version="1.0"?>
<svg xmlns="http://www.w3.org/2000/svg" xmlns:xlink="http://www.w3.org/1999/xlink" xmlns:svgjs="http://svgjs.com/svgjs" version="1.1" width="512" height="512" x="0" y="0" viewBox="0 0 569.859 569.858" style="enable-background:new 0 0 512 512" xml:space="preserve"><g>
<g xmlns="http://www.w3.org/2000/svg">
	<path d="M155.716,569.858h258.426c21.221,0,38.432-17.203,38.432-38.441V38.441C452.574,17.212,435.371,0,414.142,0H155.716   c-21.238,0-38.432,17.212-38.432,38.441v492.976C117.285,552.655,134.478,569.858,155.716,569.858z M284.294,546.392   c-13.378,0-24.203-10.815-24.203-24.184c0-13.359,10.825-24.184,24.203-24.184c13.331,0,24.184,10.824,24.184,24.184   C308.478,535.576,297.625,546.392,284.294,546.392z M169.151,74.004c0-5.843,4.733-10.576,10.586-10.576h210.375   c5.852,0,10.586,4.733,10.586,10.576v379.517c0,5.843-4.734,10.586-10.586,10.586H179.737c-5.853,0-10.586-4.743-10.586-10.586   V74.004L169.151,74.004z" fill="#ffffff" data-original="#000000" style=""/>
	<path d="M206.646,287.305l10.194,1.454c1.176,3.604,2.601,7.038,4.303,10.385c0,0-2.773,3.691-6.187,8.252   c-3.423,4.562-3.318,12.862,1.004,17.949c3.146,3.691,6.579,7.124,10.28,10.271c5.087,4.322,13.387,4.418,17.939,0.994l8.243-6.196   c3.347,1.692,6.799,3.146,10.385,4.322c0,0,0.65,4.57,1.454,10.203c0.793,5.632,5.689,11.188,11.006,11.762   c3.175,0.335,6.397,0.487,9.658,0.487c3.27,0,6.493-0.162,9.668-0.497c5.326-0.563,10.203-6.12,10.996-11.752l1.443-10.203   c3.605-1.177,7.059-2.63,10.375-4.322c0,0,3.701,2.764,8.254,6.196c4.551,3.424,12.861,3.337,17.947-0.994   c3.701-3.146,7.135-6.579,10.281-10.271c4.332-5.087,4.436-13.388,1.014-17.949l-6.197-8.252c1.703-3.347,3.146-6.78,4.312-10.385   c0,0,4.57-0.65,10.203-1.454c5.633-0.803,11.188-5.689,11.752-11.006c0.336-3.175,0.508-6.407,0.508-9.677   c0-3.251-0.172-6.474-0.518-9.649c-0.562-5.307-6.109-10.193-11.752-10.987l-10.203-1.453c-1.166-3.577-2.609-7.048-4.312-10.356   c0,0,2.773-3.701,6.197-8.262c3.424-4.552,3.318-12.862-1.014-17.949c-3.146-3.681-6.58-7.124-10.279-10.26   c-5.078-4.332-13.389-4.428-17.939-1.014l-8.254,6.206c-3.316-1.683-6.77-3.137-10.375-4.313c0,0-0.641-4.571-1.443-10.203   c-0.793-5.632-5.68-11.178-10.996-11.752c-3.186-0.335-6.398-0.517-9.668-0.517c-3.261,0-6.483,0.172-9.658,0.517   c-5.317,0.564-10.203,6.11-11.006,11.752l-1.454,10.203c-3.586,1.176-7.038,2.63-10.385,4.313c0,0-3.691-2.773-8.243-6.206   c-4.552-3.414-12.852-3.318-17.93,1.014c-3.701,3.146-7.133,6.579-10.279,10.26c-4.332,5.087-4.437,13.397-1.014,17.949   l6.187,8.262c-1.711,3.318-3.136,6.79-4.303,10.356c0,0-4.571,0.65-10.194,1.453c-5.632,0.804-11.188,5.68-11.752,10.987   c-0.344,3.185-0.516,6.397-0.516,9.649c0,3.27,0.172,6.502,0.516,9.677C195.458,281.615,201.014,286.502,206.646,287.305z    M284.935,226.334c22.252,0,40.295,18.054,40.295,40.296c0,22.262-18.043,40.297-40.295,40.297   c-22.262,0-40.297-18.045-40.297-40.297C244.638,244.389,262.673,226.334,284.935,226.334z" fill="#ffffff" data-original="#000000" style=""/>
</g>
<g xmlns="http://www.w3.org/2000/svg">
</g>
<g xmlns="http://www.w3.org/2000/svg">
</g>
<g xmlns="http://www.w3.org/2000/svg">
</g>
<g xmlns="http://www.w3.org/2000/svg">
</g>
<g xmlns="http://www.w3.org/2000/svg">
</g>
<g xmlns="http://www.w3.org/2000/svg">
</g>
<g xmlns="http://www.w3.org/2000/svg">
</g>
<g xmlns="http://www.w3.org/2000/svg">
</g>
<g xmlns="http://www.w3.org/2000/svg">
</g>
<g xmlns="http://www.w3.org/2000/svg">
</g>
<g xmlns="http://www.w3.org/2000/svg">
</g>
<g xmlns="http://www.w3.org/2000/svg">
</g>
<g xmlns="http://www.w3.org/2000/svg">
</g>
<g xmlns="http://www.w3.org/2000/svg">
</g>
<g xmlns="http://www.w3.org/2000/svg">
</g>
</g></svg>
