<?xml version="1.0"?>
<svg xmlns="http://www.w3.org/2000/svg" xmlns:xlink="http://www.w3.org/1999/xlink" xmlns:svgjs="http://svgjs.com/svgjs" version="1.1" width="512" height="512" x="0" y="0" viewBox="0 0 469.333 469.333" style="enable-background:new 0 0 512 512" xml:space="preserve"><g>
<g xmlns="http://www.w3.org/2000/svg">
	<g>
		<g>
			<path d="M224,315.733v-74.667c0-14.933-12.8-27.733-25.6-27.733v-32c0-29.867-29.867-53.333-59.733-53.333     c-29.867,0-59.733,23.467-59.733,53.333v32c-12.8,0-25.6,12.8-25.6,25.6V313.6c0,14.933,12.8,27.733,25.6,27.733h117.333     C211.2,341.333,224,328.533,224,315.733z M170.667,213.333h-64v-32c0-17.067,14.933-27.733,32-27.733     c17.067,0,32,10.667,32,27.733V213.333z" fill="#ffffff" data-original="#000000" style=""/>
			<path d="M373.333,0H160c-23.467,0-42.667,19.2-42.667,42.667v64H160V64h213.333v341.333H160v-42.667h-42.667v64     c0,23.467,19.2,42.667,42.667,42.667h213.333c23.467,0,42.667-19.2,42.667-42.667v-384C416,19.2,396.8,0,373.333,0z" fill="#ffffff" data-original="#000000" style=""/>
		</g>
	</g>
</g>
<g xmlns="http://www.w3.org/2000/svg">
</g>
<g xmlns="http://www.w3.org/2000/svg">
</g>
<g xmlns="http://www.w3.org/2000/svg">
</g>
<g xmlns="http://www.w3.org/2000/svg">
</g>
<g xmlns="http://www.w3.org/2000/svg">
</g>
<g xmlns="http://www.w3.org/2000/svg">
</g>
<g xmlns="http://www.w3.org/2000/svg">
</g>
<g xmlns="http://www.w3.org/2000/svg">
</g>
<g xmlns="http://www.w3.org/2000/svg">
</g>
<g xmlns="http://www.w3.org/2000/svg">
</g>
<g xmlns="http://www.w3.org/2000/svg">
</g>
<g xmlns="http://www.w3.org/2000/svg">
</g>
<g xmlns="http://www.w3.org/2000/svg">
</g>
<g xmlns="http://www.w3.org/2000/svg">
</g>
<g xmlns="http://www.w3.org/2000/svg">
</g>
</g></svg>
