<?xml version="1.0"?>
<svg xmlns="http://www.w3.org/2000/svg" xmlns:xlink="http://www.w3.org/1999/xlink" xmlns:svgjs="http://svgjs.com/svgjs" version="1.1" width="512" height="512" x="0" y="0" viewBox="0 0 95.44 95.439" style="enable-background:new 0 0 512 512" xml:space="preserve" class=""><g>
<g xmlns="http://www.w3.org/2000/svg">
	<g>
		<path d="M69.352,0H26.087c-4.212,0-7.635,3.423-7.635,7.636v80.168c0,4.213,3.423,7.636,7.635,7.636h43.265    c4.214,0,7.636-3.423,7.636-7.636V7.636C76.988,3.423,73.566,0,69.352,0z M40.721,6.975c0-1.044,0.841-1.884,1.884-1.884h10.23    c1.045,0,1.885,0.84,1.885,1.884v0.05c0,1.044-0.84,1.884-1.885,1.884h-10.23c-1.043,0-1.884-0.84-1.884-1.884V6.975z     M47.72,92.576c-2.277,0-4.136-1.857-4.136-4.138c0-2.276,1.858-4.135,4.136-4.135s4.136,1.856,4.136,4.135    C51.856,90.719,49.998,92.576,47.72,92.576z M70.625,80.169c0,0.698-0.571,1.272-1.272,1.272H26.087    c-0.7,0-1.272-0.574-1.272-1.272V15.271c0-0.7,0.572-1.272,1.272-1.272h43.265c0.701,0,1.272,0.572,1.272,1.272V80.169z" fill="#ffffff" data-original="#000000" style="" class=""/>
		<path d="M56.99,53.516c1.729-2.268,2.772-5.088,2.772-8.155c0-7.434-6.047-13.478-13.479-13.478    c-7.433,0-13.479,6.044-13.479,13.478c0,7.432,6.047,13.479,13.479,13.479c2.192,0,4.256-0.536,6.089-1.469l6.582,6.58    c0.585,0.586,1.352,0.879,2.118,0.879s1.532-0.293,2.118-0.879c1.17-1.168,1.17-3.062,0-4.233L56.99,53.516z M46.283,54.348    c-4.955,0-8.986-4.031-8.986-8.987c0-4.955,4.031-8.985,8.986-8.985c4.956,0,8.983,4.03,8.983,8.985    C55.268,50.316,51.24,54.348,46.283,54.348z" fill="#ffffff" data-original="#000000" style="" class=""/>
	</g>
</g>
<g xmlns="http://www.w3.org/2000/svg">
</g>
<g xmlns="http://www.w3.org/2000/svg">
</g>
<g xmlns="http://www.w3.org/2000/svg">
</g>
<g xmlns="http://www.w3.org/2000/svg">
</g>
<g xmlns="http://www.w3.org/2000/svg">
</g>
<g xmlns="http://www.w3.org/2000/svg">
</g>
<g xmlns="http://www.w3.org/2000/svg">
</g>
<g xmlns="http://www.w3.org/2000/svg">
</g>
<g xmlns="http://www.w3.org/2000/svg">
</g>
<g xmlns="http://www.w3.org/2000/svg">
</g>
<g xmlns="http://www.w3.org/2000/svg">
</g>
<g xmlns="http://www.w3.org/2000/svg">
</g>
<g xmlns="http://www.w3.org/2000/svg">
</g>
<g xmlns="http://www.w3.org/2000/svg">
</g>
<g xmlns="http://www.w3.org/2000/svg">
</g>
</g></svg>
